<?xml version="1.0" standalone="no"?>
<!DOCTYPE svg PUBLIC "-//W3C//DTD SVG 1.1//EN" "http://www.w3.org/Graphics/SVG/1.1/DTD/svg11.dtd">
<svg version="1.1" width="1200" height="406" onload="init(evt)" viewBox="0 0 1200 406" xmlns="http://www.w3.org/2000/svg" xmlns:xlink="http://www.w3.org/1999/xlink">
<!-- Flame graph stack visualization. See https://github.com/brendangregg/FlameGraph for latest version, and http://www.brendangregg.com/flamegraphs.html for examples. -->
<!-- NOTES:  -->
<defs>
	<linearGradient id="background" y1="0" y2="1" x1="0" x2="0" >
		<stop stop-color="#eeeeee" offset="5%" />
		<stop stop-color="#eeeeb0" offset="95%" />
	</linearGradient>
</defs>
<style type="text/css">
	text { font-family:Verdana; font-size:12px; fill:rgb(0,0,0); }
	#search, #ignorecase { opacity:0.1; cursor:pointer; }
	#search:hover, #search.show, #ignorecase:hover, #ignorecase.show { opacity:1; }
	#subtitle { text-anchor:middle; font-color:rgb(160,160,160); }
	#title { text-anchor:middle; font-size:17px}
	#unzoom { cursor:pointer; }
	#frames > *:hover { stroke:black; stroke-width:0.5; cursor:pointer; }
	.hide { display:none; }
	.parent { opacity:0.5; }
</style>
<script type="text/ecmascript">
<![CDATA[
	"use strict";
	var details, searchbtn, unzoombtn, matchedtxt, svg, searching, currentSearchTerm, ignorecase, ignorecaseBtn;
	function init(evt) {
		details = document.getElementById("details").firstChild;
		searchbtn = document.getElementById("search");
		ignorecaseBtn = document.getElementById("ignorecase");
		unzoombtn = document.getElementById("unzoom");
		matchedtxt = document.getElementById("matched");
		svg = document.getElementsByTagName("svg")[0];
		searching = 0;
		currentSearchTerm = null;

		// use GET parameters to restore a flamegraphs state.
		var params = get_params();
		if (params.x && params.y)
			zoom(find_group(document.querySelector('[x="' + params.x + '"][y="' + params.y + '"]')));
                if (params.s) search(params.s);
	}

	// event listeners
	window.addEventListener("click", function(e) {
		var target = find_group(e.target);
		if (target) {
			if (target.nodeName == "a") {
				if (e.ctrlKey === false) return;
				e.preventDefault();
			}
			if (target.classList.contains("parent")) unzoom(true);
			zoom(target);
			if (!document.querySelector('.parent')) {
				// we have basically done a clearzoom so clear the url
				var params = get_params();
				if (params.x) delete params.x;
				if (params.y) delete params.y;
				history.replaceState(null, null, parse_params(params));
				unzoombtn.classList.add("hide");
				return;
			}

			// set parameters for zoom state
			var el = target.querySelector("rect");
			if (el && el.attributes && el.attributes.y && el.attributes._orig_x) {
				var params = get_params()
				params.x = el.attributes._orig_x.value;
				params.y = el.attributes.y.value;
				history.replaceState(null, null, parse_params(params));
			}
		}
		else if (e.target.id == "unzoom") clearzoom();
		else if (e.target.id == "search") search_prompt();
		else if (e.target.id == "ignorecase") toggle_ignorecase();
	}, false)

	// mouse-over for info
	// show
	window.addEventListener("mouseover", function(e) {
		var target = find_group(e.target);
		if (target) details.nodeValue = "Function: " + g_to_text(target);
	}, false)

	// clear
	window.addEventListener("mouseout", function(e) {
		var target = find_group(e.target);
		if (target) details.nodeValue = ' ';
	}, false)

	// ctrl-F for search
	// ctrl-I to toggle case-sensitive search
	window.addEventListener("keydown",function (e) {
		if (e.keyCode === 114 || (e.ctrlKey && e.keyCode === 70)) {
			e.preventDefault();
			search_prompt();
		}
		else if (e.ctrlKey && e.keyCode === 73) {
			e.preventDefault();
			toggle_ignorecase();
		}
	}, false)

	// functions
	function get_params() {
		var params = {};
		var paramsarr = window.location.search.substr(1).split('&');
		for (var i = 0; i < paramsarr.length; ++i) {
			var tmp = paramsarr[i].split("=");
			if (!tmp[0] || !tmp[1]) continue;
			params[tmp[0]]  = decodeURIComponent(tmp[1]);
		}
		return params;
	}
	function parse_params(params) {
		var uri = "?";
		for (var key in params) {
			uri += key + '=' + encodeURIComponent(params[key]) + '&';
		}
		if (uri.slice(-1) == "&")
			uri = uri.substring(0, uri.length - 1);
		if (uri == '?')
			uri = window.location.href.split('?')[0];
		return uri;
	}
	function find_child(node, selector) {
		var children = node.querySelectorAll(selector);
		if (children.length) return children[0];
	}
	function find_group(node) {
		var parent = node.parentElement;
		if (!parent) return;
		if (parent.id == "frames") return node;
		return find_group(parent);
	}
	function orig_save(e, attr, val) {
		if (e.attributes["_orig_" + attr] != undefined) return;
		if (e.attributes[attr] == undefined) return;
		if (val == undefined) val = e.attributes[attr].value;
		e.setAttribute("_orig_" + attr, val);
	}
	function orig_load(e, attr) {
		if (e.attributes["_orig_"+attr] == undefined) return;
		e.attributes[attr].value = e.attributes["_orig_" + attr].value;
		e.removeAttribute("_orig_"+attr);
	}
	function g_to_text(e) {
		var text = find_child(e, "title").firstChild.nodeValue;
		return (text)
	}
	function g_to_func(e) {
		var func = g_to_text(e);
		// if there's any manipulation we want to do to the function
		// name before it's searched, do it here before returning.
		return (func);
	}
	function update_text(e) {
		var r = find_child(e, "rect");
		var t = find_child(e, "text");
		var w = parseFloat(r.attributes.width.value) -3;
		var txt = find_child(e, "title").textContent.replace(/\([^(]*\)$/,"");
		t.attributes.x.value = parseFloat(r.attributes.x.value) + 3;

		// Smaller than this size won't fit anything
		if (w < 2 * 12 * 0.59) {
			t.textContent = "";
			return;
		}

		t.textContent = txt;
		var sl = t.getSubStringLength(0, txt.length);
		// check if only whitespace or if we can fit the entire string into width w
		if (/^ *$/.test(txt) || sl < w)
			return;

		// this isn't perfect, but gives a good starting point
		// and avoids calling getSubStringLength too often
		var start = Math.floor((w/sl) * txt.length);
		for (var x = start; x > 0; x = x-2) {
			if (t.getSubStringLength(0, x + 2) <= w) {
				t.textContent = txt.substring(0, x) + "..";
				return;
			}
		}
		t.textContent = "";
	}

	// zoom
	function zoom_reset(e) {
		if (e.attributes != undefined) {
			orig_load(e, "x");
			orig_load(e, "width");
		}
		if (e.childNodes == undefined) return;
		for (var i = 0, c = e.childNodes; i < c.length; i++) {
			zoom_reset(c[i]);
		}
	}
	function zoom_child(e, x, ratio) {
		if (e.attributes != undefined) {
			if (e.attributes.x != undefined) {
				orig_save(e, "x");
				e.attributes.x.value = (parseFloat(e.attributes.x.value) - x - 10) * ratio + 10;
				if (e.tagName == "text")
					e.attributes.x.value = find_child(e.parentNode, "rect[x]").attributes.x.value + 3;
			}
			if (e.attributes.width != undefined) {
				orig_save(e, "width");
				e.attributes.width.value = parseFloat(e.attributes.width.value) * ratio;
			}
		}

		if (e.childNodes == undefined) return;
		for (var i = 0, c = e.childNodes; i < c.length; i++) {
			zoom_child(c[i], x - 10, ratio);
		}
	}
	function zoom_parent(e) {
		if (e.attributes) {
			if (e.attributes.x != undefined) {
				orig_save(e, "x");
				e.attributes.x.value = 10;
			}
			if (e.attributes.width != undefined) {
				orig_save(e, "width");
				e.attributes.width.value = parseInt(svg.width.baseVal.value) - (10 * 2);
			}
		}
		if (e.childNodes == undefined) return;
		for (var i = 0, c = e.childNodes; i < c.length; i++) {
			zoom_parent(c[i]);
		}
	}
	function zoom(node) {
		var attr = find_child(node, "rect").attributes;
		var width = parseFloat(attr.width.value);
		var xmin = parseFloat(attr.x.value);
		var xmax = parseFloat(xmin + width);
		var ymin = parseFloat(attr.y.value);
		var ratio = (svg.width.baseVal.value - 2 * 10) / width;

		// XXX: Workaround for JavaScript float issues (fix me)
		var fudge = 0.0001;

		unzoombtn.classList.remove("hide");

		var el = document.getElementById("frames").children;
		for (var i = 0; i < el.length; i++) {
			var e = el[i];
			var a = find_child(e, "rect").attributes;
			var ex = parseFloat(a.x.value);
			var ew = parseFloat(a.width.value);
			var upstack;
			// Is it an ancestor
			if (0 == 0) {
				upstack = parseFloat(a.y.value) > ymin;
			} else {
				upstack = parseFloat(a.y.value) < ymin;
			}
			if (upstack) {
				// Direct ancestor
				if (ex <= xmin && (ex+ew+fudge) >= xmax) {
					e.classList.add("parent");
					zoom_parent(e);
					update_text(e);
				}
				// not in current path
				else
					e.classList.add("hide");
			}
			// Children maybe
			else {
				// no common path
				if (ex < xmin || ex + fudge >= xmax) {
					e.classList.add("hide");
				}
				else {
					zoom_child(e, xmin, ratio);
					update_text(e);
				}
			}
		}
		search();
	}
	function unzoom(dont_update_text) {
		unzoombtn.classList.add("hide");
		var el = document.getElementById("frames").children;
		for(var i = 0; i < el.length; i++) {
			el[i].classList.remove("parent");
			el[i].classList.remove("hide");
			zoom_reset(el[i]);
			if(!dont_update_text) update_text(el[i]);
		}
		search();
	}
	function clearzoom() {
		unzoom();

		// remove zoom state
		var params = get_params();
		if (params.x) delete params.x;
		if (params.y) delete params.y;
		history.replaceState(null, null, parse_params(params));
	}

	// search
	function toggle_ignorecase() {
		ignorecase = !ignorecase;
		if (ignorecase) {
			ignorecaseBtn.classList.add("show");
		} else {
			ignorecaseBtn.classList.remove("show");
		}
		reset_search();
		search();
	}
	function reset_search() {
		var el = document.querySelectorAll("#frames rect");
		for (var i = 0; i < el.length; i++) {
			orig_load(el[i], "fill")
		}
		var params = get_params();
		delete params.s;
		history.replaceState(null, null, parse_params(params));
	}
	function search_prompt() {
		if (!searching) {
			var term = prompt("Enter a search term (regexp " +
			    "allowed, eg: ^ext4_)"
			    + (ignorecase ? ", ignoring case" : "")
			    + "\nPress Ctrl-i to toggle case sensitivity", "");
			if (term != null) search(term);
		} else {
			reset_search();
			searching = 0;
			currentSearchTerm = null;
			searchbtn.classList.remove("show");
			searchbtn.firstChild.nodeValue = "Search"
			matchedtxt.classList.add("hide");
			matchedtxt.firstChild.nodeValue = ""
		}
	}
	function search(term) {
		if (term) currentSearchTerm = term;
		if (currentSearchTerm === null) return;

		var re = new RegExp(currentSearchTerm, ignorecase ? 'i' : '');
		var el = document.getElementById("frames").children;
		var matches = new Object();
		var maxwidth = 0;
		for (var i = 0; i < el.length; i++) {
			var e = el[i];
			var func = g_to_func(e);
			var rect = find_child(e, "rect");
			if (func == null || rect == null)
				continue;

			// Save max width. Only works as we have a root frame
			var w = parseFloat(rect.attributes.width.value);
			if (w > maxwidth)
				maxwidth = w;

			if (func.match(re)) {
				// highlight
				var x = parseFloat(rect.attributes.x.value);
				orig_save(rect, "fill");
				rect.attributes.fill.value = "rgb(230,0,230)";

				// remember matches
				if (matches[x] == undefined) {
					matches[x] = w;
				} else {
					if (w > matches[x]) {
						// overwrite with parent
						matches[x] = w;
					}
				}
				searching = 1;
			}
		}
		if (!searching)
			return;
		var params = get_params();
		params.s = currentSearchTerm;
		history.replaceState(null, null, parse_params(params));

		searchbtn.classList.add("show");
		searchbtn.firstChild.nodeValue = "Reset Search";

		// calculate percent matched, excluding vertical overlap
		var count = 0;
		var lastx = -1;
		var lastw = 0;
		var keys = Array();
		for (k in matches) {
			if (matches.hasOwnProperty(k))
				keys.push(k);
		}
		// sort the matched frames by their x location
		// ascending, then width descending
		keys.sort(function(a, b){
			return a - b;
		});
		// Step through frames saving only the biggest bottom-up frames
		// thanks to the sort order. This relies on the tree property
		// where children are always smaller than their parents.
		var fudge = 0.0001;	// JavaScript floating point
		for (var k in keys) {
			var x = parseFloat(keys[k]);
			var w = matches[keys[k]];
			if (x >= lastx + lastw - fudge) {
				count += w;
				lastx = x;
				lastw = w;
			}
		}
		// display matched percent
		matchedtxt.classList.remove("hide");
		var pct = 100 * count / maxwidth;
		if (pct != 100) pct = pct.toFixed(1)
		matchedtxt.firstChild.nodeValue = "Matched: " + pct + "%";
	}
]]>
</script>
<rect x="0.0" y="0" width="1200.0" height="406.0" fill="url(#background)"  />
<text id="title" x="600.00" y="24" >Flame Graph</text>
<text id="details" x="10.00" y="389" > </text>
<text id="unzoom" x="10.00" y="24" class="hide">Reset Zoom</text>
<text id="search" x="1090.00" y="24" >Search</text>
<text id="ignorecase" x="1174.00" y="24" >ic</text>
<text id="matched" x="1090.00" y="389" > </text>
<g id="frames">
<g >
<title>__irq_exit_rcu (590,538,548 samples, 0.35%)</title><rect x="593.8" y="245" width="4.1" height="15.0" fill="rgb(227,101,24)" rx="2" ry="2" />
<text  x="596.76" y="255.5" ></text>
</g>
<g >
<title>irq_exit_rcu (42,279,889 samples, 0.03%)</title><rect x="1189.1" y="213" width="0.3" height="15.0" fill="rgb(254,227,54)" rx="2" ry="2" />
<text  x="1192.11" y="223.5" ></text>
</g>
<g >
<title>__cgroup_account_cputime_field (41,849,520 samples, 0.03%)</title><rect x="1188.5" y="85" width="0.3" height="15.0" fill="rgb(232,126,30)" rx="2" ry="2" />
<text  x="1191.51" y="95.5" ></text>
</g>
<g >
<title>reply_2process (167,097,769,399 samples, 100.00%)</title><rect x="10.0" y="341" width="1180.0" height="15.0" fill="rgb(230,116,27)" rx="2" ry="2" />
<text  x="13.00" y="351.5" >reply_2process</text>
</g>
<g >
<title>cpumask_weight (42,259,763 samples, 0.03%)</title><rect x="599.4" y="213" width="0.3" height="15.0" fill="rgb(230,115,27)" rx="2" ry="2" />
<text  x="602.43" y="223.5" ></text>
</g>
<g >
<title>hrtimer_interrupt (211,269,400 samples, 0.13%)</title><rect x="597.9" y="245" width="1.5" height="15.0" fill="rgb(228,109,26)" rx="2" ry="2" />
<text  x="600.93" y="255.5" ></text>
</g>
<g >
<title>hrtimer_interrupt (84,034,061 samples, 0.05%)</title><rect x="1188.5" y="197" width="0.6" height="15.0" fill="rgb(228,109,26)" rx="2" ry="2" />
<text  x="1191.51" y="207.5" ></text>
</g>
<g >
<title>__run_timers (42,279,889 samples, 0.03%)</title><rect x="1189.1" y="149" width="0.3" height="15.0" fill="rgb(206,5,1)" rx="2" ry="2" />
<text  x="1192.11" y="159.5" ></text>
</g>
<g >
<title>handle_softirqs (590,538,548 samples, 0.35%)</title><rect x="593.8" y="229" width="4.1" height="15.0" fill="rgb(238,156,37)" rx="2" ry="2" />
<text  x="596.76" y="239.5" ></text>
</g>
<g >
<title>xhci_irq (41,973,820 samples, 0.03%)</title><rect x="593.5" y="181" width="0.3" height="15.0" fill="rgb(240,162,38)" rx="2" ry="2" />
<text  x="596.47" y="191.5" ></text>
</g>
<g >
<title>task_work_run (42,259,763 samples, 0.03%)</title><rect x="599.4" y="229" width="0.3" height="15.0" fill="rgb(209,22,5)" rx="2" ry="2" />
<text  x="602.43" y="239.5" ></text>
</g>
<g >
<title>tick_sched_do_timer (42,278,658 samples, 0.03%)</title><rect x="1039.2" y="165" width="0.3" height="15.0" fill="rgb(227,104,25)" rx="2" ry="2" />
<text  x="1042.17" y="175.5" ></text>
</g>
<g >
<title>srso_safe_ret (42,138,926 samples, 0.03%)</title><rect x="597.3" y="85" width="0.3" height="15.0" fill="rgb(227,105,25)" rx="2" ry="2" />
<text  x="600.34" y="95.5" ></text>
</g>
<g >
<title>tick_nohz_highres_handler (42,245,100 samples, 0.03%)</title><rect x="1039.5" y="197" width="0.3" height="15.0" fill="rgb(215,50,11)" rx="2" ry="2" />
<text  x="1042.47" y="207.5" ></text>
</g>
<g >
<title>update_curr (42,281,880 samples, 0.03%)</title><rect x="598.5" y="133" width="0.3" height="15.0" fill="rgb(227,105,25)" rx="2" ry="2" />
<text  x="601.53" y="143.5" ></text>
</g>
<g >
<title>xhci_queue_isoc_tx_prepare (42,284,731 samples, 0.03%)</title><rect x="597.6" y="85" width="0.3" height="15.0" fill="rgb(243,178,42)" rx="2" ry="2" />
<text  x="600.64" y="95.5" ></text>
</g>
<g >
<title>asm_sysvec_apic_timer_interrupt (253,529,211 samples, 0.15%)</title><rect x="597.9" y="293" width="1.8" height="15.0" fill="rgb(232,127,30)" rx="2" ry="2" />
<text  x="600.93" y="303.5" ></text>
</g>
<g >
<title>__hrtimer_run_queues (211,269,400 samples, 0.13%)</title><rect x="597.9" y="229" width="1.5" height="15.0" fill="rgb(237,150,35)" rx="2" ry="2" />
<text  x="600.93" y="239.5" ></text>
</g>
<g >
<title>common_interrupt (674,547,312 samples, 0.40%)</title><rect x="593.2" y="277" width="4.7" height="15.0" fill="rgb(215,46,11)" rx="2" ry="2" />
<text  x="596.17" y="287.5" ></text>
</g>
<g >
<title>srso_safe_ret (42,208,431 samples, 0.03%)</title><rect x="1189.4" y="293" width="0.3" height="15.0" fill="rgb(227,105,25)" rx="2" ry="2" />
<text  x="1192.40" y="303.5" ></text>
</g>
<g >
<title>arch_scale_freq_tick (42,257,855 samples, 0.03%)</title><rect x="598.2" y="149" width="0.3" height="15.0" fill="rgb(252,219,52)" rx="2" ry="2" />
<text  x="601.23" y="159.5" ></text>
</g>
<g >
<title>trigger_load_balance (42,275,915 samples, 0.03%)</title><rect x="599.1" y="149" width="0.3" height="15.0" fill="rgb(228,108,26)" rx="2" ry="2" />
<text  x="602.13" y="159.5" ></text>
</g>
<g >
<title>xhci_msi_irq (41,973,820 samples, 0.03%)</title><rect x="593.5" y="197" width="0.3" height="15.0" fill="rgb(251,213,50)" rx="2" ry="2" />
<text  x="596.47" y="207.5" ></text>
</g>
<g >
<title>__sysvec_apic_timer_interrupt (84,034,061 samples, 0.05%)</title><rect x="1188.5" y="213" width="0.6" height="15.0" fill="rgb(242,173,41)" rx="2" ry="2" />
<text  x="1191.51" y="223.5" ></text>
</g>
<g >
<title>account_user_time (41,849,520 samples, 0.03%)</title><rect x="1188.5" y="101" width="0.3" height="15.0" fill="rgb(225,96,23)" rx="2" ry="2" />
<text  x="1191.51" y="111.5" ></text>
</g>
<g >
<title>__queue_work (42,279,889 samples, 0.03%)</title><rect x="1189.1" y="101" width="0.3" height="15.0" fill="rgb(212,34,8)" rx="2" ry="2" />
<text  x="1192.11" y="111.5" ></text>
</g>
<g >
<title>__hrtimer_run_queues (84,034,061 samples, 0.05%)</title><rect x="1188.5" y="181" width="0.6" height="15.0" fill="rgb(237,150,35)" rx="2" ry="2" />
<text  x="1191.51" y="191.5" ></text>
</g>
<g >
<title>all (167,097,769,399 samples, 100%)</title><rect x="10.0" y="357" width="1180.0" height="15.0" fill="rgb(213,39,9)" rx="2" ry="2" />
<text  x="13.00" y="367.5" ></text>
</g>
<g >
<title>sysvec_apic_timer_interrupt (126,313,950 samples, 0.08%)</title><rect x="1188.5" y="229" width="0.9" height="15.0" fill="rgb(220,69,16)" rx="2" ry="2" />
<text  x="1191.51" y="239.5" ></text>
</g>
<g >
<title>hrtimer_interrupt (84,523,758 samples, 0.05%)</title><rect x="1039.2" y="213" width="0.6" height="15.0" fill="rgb(228,109,26)" rx="2" ry="2" />
<text  x="1042.17" y="223.5" ></text>
</g>
<g >
<title>native_read_msr (42,184,541 samples, 0.03%)</title><rect x="1188.8" y="85" width="0.3" height="15.0" fill="rgb(211,30,7)" rx="2" ry="2" />
<text  x="1191.81" y="95.5" ></text>
</g>
<g >
<title>irq_exit_rcu (590,538,548 samples, 0.35%)</title><rect x="593.8" y="261" width="4.1" height="15.0" fill="rgb(254,227,54)" rx="2" ry="2" />
<text  x="596.76" y="271.5" ></text>
</g>
<g >
<title>update_wall_time (42,278,658 samples, 0.03%)</title><rect x="1039.2" y="133" width="0.3" height="15.0" fill="rgb(207,11,2)" rx="2" ry="2" />
<text  x="1042.17" y="143.5" ></text>
</g>
<g >
<title>tasklet_action_common.constprop.0 (590,538,548 samples, 0.35%)</title><rect x="593.8" y="197" width="4.1" height="15.0" fill="rgb(248,200,47)" rx="2" ry="2" />
<text  x="596.76" y="207.5" ></text>
</g>
<g >
<title>xsk_ring_cons__peek (54,090,359,376 samples, 32.37%)</title><rect x="807.4" y="277" width="382.0" height="15.0" fill="rgb(229,111,26)" rx="2" ry="2" />
<text  x="810.43" y="287.5" >xsk_ring_cons__peek</text>
</g>
<g >
<title>__irqentry_text_start (42,058,685 samples, 0.03%)</title><rect x="592.9" y="293" width="0.3" height="15.0" fill="rgb(252,219,52)" rx="2" ry="2" />
<text  x="595.87" y="303.5" ></text>
</g>
<g >
<title>arch_scale_freq_tick (42,184,541 samples, 0.03%)</title><rect x="1188.8" y="101" width="0.3" height="15.0" fill="rgb(252,219,52)" rx="2" ry="2" />
<text  x="1191.81" y="111.5" ></text>
</g>
<g >
<title>xhci_queue_isoc_tx_prepare (295,385,155 samples, 0.18%)</title><rect x="593.8" y="69" width="2.1" height="15.0" fill="rgb(243,178,42)" rx="2" ry="2" />
<text  x="596.76" y="79.5" ></text>
</g>
<g >
<title>update_process_times (84,034,061 samples, 0.05%)</title><rect x="1188.5" y="133" width="0.6" height="15.0" fill="rgb(250,209,50)" rx="2" ry="2" />
<text  x="1191.51" y="143.5" ></text>
</g>
<g >
<title>asm_common_interrupt (674,547,312 samples, 0.40%)</title><rect x="593.2" y="293" width="4.7" height="15.0" fill="rgb(227,105,25)" rx="2" ry="2" />
<text  x="596.17" y="303.5" ></text>
</g>
<g >
<title>__sysvec_apic_timer_interrupt (211,269,400 samples, 0.13%)</title><rect x="597.9" y="261" width="1.5" height="15.0" fill="rgb(242,173,41)" rx="2" ry="2" />
<text  x="600.93" y="271.5" ></text>
</g>
<g >
<title>kick_pool (42,279,889 samples, 0.03%)</title><rect x="1189.1" y="69" width="0.3" height="15.0" fill="rgb(244,181,43)" rx="2" ry="2" />
<text  x="1192.11" y="79.5" ></text>
</g>
<g >
<title>__hrtimer_run_queues (42,278,658 samples, 0.03%)</title><rect x="1039.2" y="197" width="0.3" height="15.0" fill="rgb(237,150,35)" rx="2" ry="2" />
<text  x="1042.17" y="207.5" ></text>
</g>
<g >
<title>__kmalloc (84,413,878 samples, 0.05%)</title><rect x="596.4" y="85" width="0.6" height="15.0" fill="rgb(212,33,8)" rx="2" ry="2" />
<text  x="599.45" y="95.5" ></text>
</g>
<g >
<title>update_load_avg (42,187,804 samples, 0.03%)</title><rect x="598.8" y="133" width="0.3" height="15.0" fill="rgb(240,165,39)" rx="2" ry="2" />
<text  x="601.83" y="143.5" ></text>
</g>
<g >
<title>__libc_start_call_main (167,097,769,399 samples, 100.00%)</title><rect x="10.0" y="325" width="1180.0" height="15.0" fill="rgb(210,26,6)" rx="2" ry="2" />
<text  x="13.00" y="335.5" >__libc_start_call_main</text>
</g>
<g >
<title>__handle_irq_event_percpu (41,973,820 samples, 0.03%)</title><rect x="593.5" y="213" width="0.3" height="15.0" fill="rgb(236,147,35)" rx="2" ry="2" />
<text  x="596.47" y="223.5" ></text>
</g>
<g >
<title>irqentry_exit (42,259,811 samples, 0.03%)</title><rect x="599.4" y="261" width="0.3" height="15.0" fill="rgb(219,66,15)" rx="2" ry="2" />
<text  x="602.43" y="271.5" ></text>
</g>
<g >
<title>handle_irq_event (41,973,820 samples, 0.03%)</title><rect x="593.5" y="229" width="0.3" height="15.0" fill="rgb(209,19,4)" rx="2" ry="2" />
<text  x="596.47" y="239.5" ></text>
</g>
<g >
<title>usb_hcd_submit_urb (295,153,393 samples, 0.18%)</title><rect x="595.9" y="117" width="2.0" height="15.0" fill="rgb(244,181,43)" rx="2" ry="2" />
<text  x="598.85" y="127.5" ></text>
</g>
<g >
<title>update_curr_se (42,281,880 samples, 0.03%)</title><rect x="598.5" y="117" width="0.3" height="15.0" fill="rgb(218,64,15)" rx="2" ry="2" />
<text  x="601.53" y="127.5" ></text>
</g>
<g >
<title>read_tsc (42,278,658 samples, 0.03%)</title><rect x="1039.2" y="117" width="0.3" height="15.0" fill="rgb(206,7,1)" rx="2" ry="2" />
<text  x="1042.17" y="127.5" ></text>
</g>
<g >
<title>__sysvec_apic_timer_interrupt (84,523,758 samples, 0.05%)</title><rect x="1039.2" y="229" width="0.6" height="15.0" fill="rgb(242,173,41)" rx="2" ry="2" />
<text  x="1042.17" y="239.5" ></text>
</g>
<g >
<title>__usb_hcd_giveback_urb (590,538,548 samples, 0.35%)</title><rect x="593.8" y="165" width="4.1" height="15.0" fill="rgb(231,123,29)" rx="2" ry="2" />
<text  x="596.76" y="175.5" ></text>
</g>
<g >
<title>handle_edge_irq (41,973,820 samples, 0.03%)</title><rect x="593.5" y="245" width="0.3" height="15.0" fill="rgb(220,69,16)" rx="2" ry="2" />
<text  x="596.47" y="255.5" ></text>
</g>
<g >
<title>__kmalloc (42,271,596 samples, 0.03%)</title><rect x="595.9" y="101" width="0.2" height="15.0" fill="rgb(212,33,8)" rx="2" ry="2" />
<text  x="598.85" y="111.5" ></text>
</g>
<g >
<title>usb_submit_urb (295,385,155 samples, 0.18%)</title><rect x="593.8" y="117" width="2.1" height="15.0" fill="rgb(215,48,11)" rx="2" ry="2" />
<text  x="596.76" y="127.5" ></text>
</g>
<g >
<title>polling_RX (83,503,368,618 samples, 49.97%)</title><rect x="599.7" y="293" width="589.7" height="15.0" fill="rgb(211,30,7)" rx="2" ry="2" />
<text  x="602.73" y="303.5" >polling_RX</text>
</g>
<g >
<title>run_timer_softirq (42,279,889 samples, 0.03%)</title><rect x="1189.1" y="165" width="0.3" height="15.0" fill="rgb(249,206,49)" rx="2" ry="2" />
<text  x="1192.11" y="175.5" ></text>
</g>
<g >
<title>usb_submit_urb (295,153,393 samples, 0.18%)</title><rect x="595.9" y="133" width="2.0" height="15.0" fill="rgb(215,48,11)" rx="2" ry="2" />
<text  x="598.85" y="143.5" ></text>
</g>
<g >
<title>asm_sysvec_apic_timer_interrupt (126,313,950 samples, 0.08%)</title><rect x="1188.5" y="245" width="0.9" height="15.0" fill="rgb(232,127,30)" rx="2" ry="2" />
<text  x="1191.51" y="255.5" ></text>
</g>
<g >
<title>xsk_ring_cons__peek (42,221,353 samples, 0.03%)</title><rect x="1189.7" y="293" width="0.3" height="15.0" fill="rgb(229,111,26)" rx="2" ry="2" />
<text  x="1192.70" y="303.5" ></text>
</g>
<g >
<title>xhci_urb_enqueue (295,385,155 samples, 0.18%)</title><rect x="593.8" y="85" width="2.1" height="15.0" fill="rgb(236,144,34)" rx="2" ry="2" />
<text  x="596.76" y="95.5" ></text>
</g>
<g >
<title>__queue_work.part.0 (42,279,889 samples, 0.03%)</title><rect x="1189.1" y="85" width="0.3" height="15.0" fill="rgb(222,79,19)" rx="2" ry="2" />
<text  x="1192.11" y="95.5" ></text>
</g>
<g >
<title>snd_usb_queue_pending_output_urbs (295,385,155 samples, 0.18%)</title><rect x="593.8" y="133" width="2.1" height="15.0" fill="rgb(211,30,7)" rx="2" ry="2" />
<text  x="596.76" y="143.5" ></text>
</g>
<g >
<title>xhci_get_isoc_frame_id (42,284,731 samples, 0.03%)</title><rect x="597.6" y="53" width="0.3" height="15.0" fill="rgb(246,189,45)" rx="2" ry="2" />
<text  x="600.64" y="63.5" ></text>
</g>
<g >
<title>tick_sched_handle (84,034,061 samples, 0.05%)</title><rect x="1188.5" y="149" width="0.6" height="15.0" fill="rgb(219,68,16)" rx="2" ry="2" />
<text  x="1191.51" y="159.5" ></text>
</g>
<g >
<title>asm_sysvec_apic_timer_interrupt (84,523,806 samples, 0.05%)</title><rect x="1039.2" y="261" width="0.6" height="15.0" fill="rgb(232,127,30)" rx="2" ry="2" />
<text  x="1042.17" y="271.5" ></text>
</g>
<g >
<title>delayed_work_timer_fn (42,279,889 samples, 0.03%)</title><rect x="1189.1" y="117" width="0.3" height="15.0" fill="rgb(216,51,12)" rx="2" ry="2" />
<text  x="1192.11" y="127.5" ></text>
</g>
<g >
<title>xhci_get_isoc_frame_id (253,323,291 samples, 0.15%)</title><rect x="593.8" y="37" width="1.8" height="15.0" fill="rgb(246,189,45)" rx="2" ry="2" />
<text  x="596.76" y="47.5" ></text>
</g>
<g >
<title>account_process_tick (41,849,520 samples, 0.03%)</title><rect x="1188.5" y="117" width="0.3" height="15.0" fill="rgb(234,136,32)" rx="2" ry="2" />
<text  x="1191.51" y="127.5" ></text>
</g>
<g >
<title>tick_do_update_jiffies64 (42,278,658 samples, 0.03%)</title><rect x="1039.2" y="149" width="0.3" height="15.0" fill="rgb(208,14,3)" rx="2" ry="2" />
<text  x="1042.17" y="159.5" ></text>
</g>
<g >
<title>xhci_update_erst_dequeue (41,973,820 samples, 0.03%)</title><rect x="593.5" y="165" width="0.3" height="15.0" fill="rgb(227,105,25)" rx="2" ry="2" />
<text  x="596.47" y="175.5" ></text>
</g>
<g >
<title>handle_softirqs (42,279,889 samples, 0.03%)</title><rect x="1189.1" y="181" width="0.3" height="15.0" fill="rgb(238,156,37)" rx="2" ry="2" />
<text  x="1192.11" y="191.5" ></text>
</g>
<g >
<title>tasklet_hi_action (590,538,548 samples, 0.35%)</title><rect x="593.8" y="213" width="4.1" height="15.0" fill="rgb(205,0,0)" rx="2" ry="2" />
<text  x="596.76" y="223.5" ></text>
</g>
<g >
<title>xhci_queue_isoc_tx (295,385,155 samples, 0.18%)</title><rect x="593.8" y="53" width="2.1" height="15.0" fill="rgb(208,17,4)" rx="2" ry="2" />
<text  x="596.76" y="63.5" ></text>
</g>
<g >
<title>xhci_urb_enqueue (210,799,619 samples, 0.13%)</title><rect x="596.4" y="101" width="1.5" height="15.0" fill="rgb(236,144,34)" rx="2" ry="2" />
<text  x="599.45" y="111.5" ></text>
</g>
<g >
<title>usb_giveback_urb_bh (590,538,548 samples, 0.35%)</title><rect x="593.8" y="181" width="4.1" height="15.0" fill="rgb(211,30,7)" rx="2" ry="2" />
<text  x="596.76" y="191.5" ></text>
</g>
<g >
<title>call_timer_fn (42,279,889 samples, 0.03%)</title><rect x="1189.1" y="133" width="0.3" height="15.0" fill="rgb(234,135,32)" rx="2" ry="2" />
<text  x="1192.11" y="143.5" ></text>
</g>
<g >
<title>scheduler_tick (42,184,541 samples, 0.03%)</title><rect x="1188.8" y="117" width="0.3" height="15.0" fill="rgb(246,190,45)" rx="2" ry="2" />
<text  x="1191.81" y="127.5" ></text>
</g>
<g >
<title>update_process_times (211,269,400 samples, 0.13%)</title><rect x="597.9" y="181" width="1.5" height="15.0" fill="rgb(250,209,50)" rx="2" ry="2" />
<text  x="600.93" y="191.5" ></text>
</g>
<g >
<title>sysvec_apic_timer_interrupt (84,523,790 samples, 0.05%)</title><rect x="1039.2" y="245" width="0.6" height="15.0" fill="rgb(220,69,16)" rx="2" ry="2" />
<text  x="1042.17" y="255.5" ></text>
</g>
<g >
<title>main (167,097,769,399 samples, 100.00%)</title><rect x="10.0" y="309" width="1180.0" height="15.0" fill="rgb(243,179,42)" rx="2" ry="2" />
<text  x="13.00" y="319.5" >main</text>
</g>
<g >
<title>__update_load_avg_cfs_rq (42,187,804 samples, 0.03%)</title><rect x="598.8" y="117" width="0.3" height="15.0" fill="rgb(228,107,25)" rx="2" ry="2" />
<text  x="601.83" y="127.5" ></text>
</g>
<g >
<title>tick_nohz_highres_handler (84,034,061 samples, 0.05%)</title><rect x="1188.5" y="165" width="0.6" height="15.0" fill="rgb(215,50,11)" rx="2" ry="2" />
<text  x="1191.51" y="175.5" ></text>
</g>
<g >
<title>sysvec_apic_timer_interrupt (253,529,211 samples, 0.15%)</title><rect x="597.9" y="277" width="1.8" height="15.0" fill="rgb(220,69,16)" rx="2" ry="2" />
<text  x="600.93" y="287.5" ></text>
</g>
<g >
<title>snd_complete_urb (590,538,548 samples, 0.35%)</title><rect x="593.8" y="149" width="4.1" height="15.0" fill="rgb(225,93,22)" rx="2" ry="2" />
<text  x="596.76" y="159.5" ></text>
</g>
<g >
<title>xhci_queue_isoc_tx (42,284,731 samples, 0.03%)</title><rect x="597.6" y="69" width="0.3" height="15.0" fill="rgb(208,17,4)" rx="2" ry="2" />
<text  x="600.64" y="79.5" ></text>
</g>
<g >
<title>__common_interrupt (41,973,820 samples, 0.03%)</title><rect x="593.5" y="261" width="0.3" height="15.0" fill="rgb(237,150,36)" rx="2" ry="2" />
<text  x="596.47" y="271.5" ></text>
</g>
<g >
<title>xhci_ring_ep_doorbell (42,061,864 samples, 0.03%)</title><rect x="595.6" y="37" width="0.3" height="15.0" fill="rgb(243,177,42)" rx="2" ry="2" />
<text  x="598.55" y="47.5" ></text>
</g>
<g >
<title>tick_nohz_highres_handler (42,278,658 samples, 0.03%)</title><rect x="1039.2" y="181" width="0.3" height="15.0" fill="rgb(215,50,11)" rx="2" ry="2" />
<text  x="1042.17" y="191.5" ></text>
</g>
<g >
<title>__irq_exit_rcu (42,279,889 samples, 0.03%)</title><rect x="1189.1" y="197" width="0.3" height="15.0" fill="rgb(227,101,24)" rx="2" ry="2" />
<text  x="1192.11" y="207.5" ></text>
</g>
<g >
<title>task_tick_fair (84,469,684 samples, 0.05%)</title><rect x="598.5" y="149" width="0.6" height="15.0" fill="rgb(217,57,13)" rx="2" ry="2" />
<text  x="601.53" y="159.5" ></text>
</g>
<g >
<title>tick_nohz_highres_handler (211,269,400 samples, 0.13%)</title><rect x="597.9" y="213" width="1.5" height="15.0" fill="rgb(215,50,11)" rx="2" ry="2" />
<text  x="600.93" y="223.5" ></text>
</g>
<g >
<title>xhci_map_urb_for_dma (42,082,178 samples, 0.03%)</title><rect x="596.1" y="101" width="0.3" height="15.0" fill="rgb(225,93,22)" rx="2" ry="2" />
<text  x="599.15" y="111.5" ></text>
</g>
<g >
<title>nohz_balancer_kick (42,275,915 samples, 0.03%)</title><rect x="599.1" y="133" width="0.3" height="15.0" fill="rgb(225,93,22)" rx="2" ry="2" />
<text  x="602.13" y="143.5" ></text>
</g>
<g >
<title>memset_orig (41,962,084 samples, 0.03%)</title><rect x="597.0" y="85" width="0.3" height="15.0" fill="rgb(247,194,46)" rx="2" ry="2" />
<text  x="600.04" y="95.5" ></text>
</g>
<g >
<title>scheduler_tick (211,269,400 samples, 0.13%)</title><rect x="597.9" y="165" width="1.5" height="15.0" fill="rgb(246,190,45)" rx="2" ry="2" />
<text  x="600.93" y="175.5" ></text>
</g>
<g >
<title>tick_sched_handle (211,269,400 samples, 0.13%)</title><rect x="597.9" y="197" width="1.5" height="15.0" fill="rgb(219,68,16)" rx="2" ry="2" />
<text  x="600.93" y="207.5" ></text>
</g>
<g >
<title>irqentry_exit_to_user_mode (42,259,811 samples, 0.03%)</title><rect x="599.4" y="245" width="0.3" height="15.0" fill="rgb(254,229,54)" rx="2" ry="2" />
<text  x="602.43" y="255.5" ></text>
</g>
<g >
<title>xsk_cons_nb_avail (21,189,123,552 samples, 12.68%)</title><rect x="1039.8" y="261" width="149.6" height="15.0" fill="rgb(218,60,14)" rx="2" ry="2" />
<text  x="1042.77" y="271.5" >xsk_cons_nb_avail</text>
</g>
<g >
<title>usb_hcd_submit_urb (295,385,155 samples, 0.18%)</title><rect x="593.8" y="101" width="2.1" height="15.0" fill="rgb(244,181,43)" rx="2" ry="2" />
<text  x="596.76" y="111.5" ></text>
</g>
</g>
</svg>
